HIERARCHY
ROOT Hips
{
    OFFSET   0.000000   0.000000   0.000000
    CHANNELS 6 Xposition Yposition Zposition Zrotation Xrotation Yrotation
    JOINT Chest
    {
        OFFSET   0.000000   8.007230   0.000000
        CHANNELS 3 Zrotation Xrotation Yrotation
        JOINT Chest2
        {
            OFFSET   0.000000  22.077100   0.000000
            CHANNELS 3 Zrotation Xrotation Yrotation
            JOINT Neck
            {
                OFFSET   0.000000  23.255100   0.000000
                CHANNELS 3 Zrotation Xrotation Yrotation
                JOINT Head
                {
                    OFFSET   0.000000  14.370100   1.956600
                    CHANNELS 3 Zrotation Xrotation Yrotation
                    End Site
                    {
                        OFFSET   0.000000  19.566000   0.000000
                    }
                }
            }
            JOINT LeftCollar
            {
                OFFSET   3.911900  19.017000  -0.467063
                CHANNELS 3 Zrotation Xrotation Yrotation
                JOINT LeftShoulder
                {
                    OFFSET  10.383700   0.000000   0.000000
                    CHANNELS 3 Zrotation Xrotation Yrotation
                    JOINT LeftElbow
                    {
                        OFFSET  26.662100   0.001193   0.000980
                        CHANNELS 3 Zrotation Xrotation Yrotation
                        JOINT LeftWrist
                        {
                            OFFSET  28.869000  -0.000059  -0.000082
                            CHANNELS 3 Zrotation Xrotation Yrotation
                            JOINT LeftFinger0
                            {
                                OFFSET   2.044650  -2.323450   3.252850
                                CHANNELS 3 Zrotation Xrotation Yrotation
                                JOINT LeftFinger01
                                {
                                    OFFSET   3.088130   0.000000   0.000000
                                    CHANNELS 3 Zrotation Xrotation Yrotation
                                    JOINT LeftFinger02
                                    {
                                        OFFSET   2.639460   0.000000   0.000000
                                        CHANNELS 3 Zrotation Xrotation Yrotation
                                        End Site
                                        {
                                            OFFSET   2.582190   0.000000   0.000000
                                        }
                                    }
                                }
                            }
                            JOINT LeftFinger1
                            {
                                OFFSET   8.364480   0.000000   3.252850
                                CHANNELS 3 Zrotation Xrotation Yrotation
                                JOINT LeftFinger11
                                {
                                    OFFSET   4.646930   0.000000   0.000000
                                    CHANNELS 3 Zrotation Xrotation Yrotation
                                    JOINT LeftFinger12
                                    {
                                        OFFSET   2.323470   0.000000   0.000000
                                        CHANNELS 3 Zrotation Xrotation Yrotation
                                        End Site
                                        {
                                            OFFSET   2.273050   0.000000   0.000000
                                        }
                                    }
                                }
                            }
                            JOINT LeftFinger2
                            {
                                OFFSET   8.364490   0.000016   1.078090
                                CHANNELS 3 Zrotation Xrotation Yrotation
                                JOINT LeftFinger21
                                {
                                    OFFSET   5.111610   0.000000   0.000000
                                    CHANNELS 3 Zrotation Xrotation Yrotation
                                    JOINT LeftFinger22
                                    {
                                        OFFSET   2.788150   0.000016   0.000000
                                        CHANNELS 3 Zrotation Xrotation Yrotation
                                        End Site
                                        {
                                            OFFSET   2.727660   0.000000   0.000000
                                        }
                                    }
                                }
                            }
                            JOINT LeftFinger3
                            {
                                OFFSET   7.899780   0.000015  -1.078090
                                CHANNELS 3 Zrotation Xrotation Yrotation
                                JOINT LeftFinger31
                                {
                                    OFFSET   4.646930   0.000000   0.000000
                                    CHANNELS 3 Zrotation Xrotation Yrotation
                                    JOINT LeftFinger32
                                    {
                                        OFFSET   2.323470   0.000000   0.000000
                                        CHANNELS 3 Zrotation Xrotation Yrotation
                                        End Site
                                        {
                                            OFFSET   2.273050   0.000000   0.000000
                                        }
                                    }
                                }
                            }
                            JOINT LeftFinger4
                            {
                                OFFSET   7.435090   0.000000  -3.252850
                                CHANNELS 3 Zrotation Xrotation Yrotation
                                JOINT LeftFinger41
                                {
                                    OFFSET   3.717550   0.000000   0.000000
                                    CHANNELS 3 Zrotation Xrotation Yrotation
                                    JOINT LeftFinger42
                                    {
                                        OFFSET   1.858770   0.000000   0.000000
                                        CHANNELS 3 Zrotation Xrotation Yrotation
                                        End Site
                                        {
                                            OFFSET   1.818440   0.000000   0.000000
                                        }
                                    }
                                }
                            }
                        }
                    }
                }
            }
            JOINT RightCollar
            {
                OFFSET  -3.911910  19.017000  -0.467062
                CHANNELS 3 Zrotation Xrotation Yrotation
                JOINT RightShoulder
                {
                    OFFSET -10.383700   0.000014   0.000000
                    CHANNELS 3 Zrotation Xrotation Yrotation
                    JOINT RightElbow
                    {
                        OFFSET -26.662100   0.001225   0.001091
                        CHANNELS 3 Zrotation Xrotation Yrotation
                        JOINT RightWrist
                        {
                            OFFSET -28.869000  -0.000020  -0.000085
                            CHANNELS 3 Zrotation Xrotation Yrotation
                            JOINT RightFinger0
                            {
                                OFFSET  -2.044650  -2.323490   3.252850
                                CHANNELS 3 Zrotation Xrotation Yrotation
                                JOINT RightFinger01
                                {
                                    OFFSET  -3.088130   0.000000   0.000000
                                    CHANNELS 3 Zrotation Xrotation Yrotation
                                    JOINT RightFinger02
                                    {
                                        OFFSET  -2.639460   0.000000   0.000000
                                        CHANNELS 3 Zrotation Xrotation Yrotation
                                        End Site
                                        {
                                            OFFSET  -2.582190   0.000000   0.000000
                                        }
                                    }
                                }
                            }
                            JOINT RightFinger1
                            {
                                OFFSET  -8.364480   0.000000   3.252850
                                CHANNELS 3 Zrotation Xrotation Yrotation
                                JOINT RightFinger11
                                {
                                    OFFSET  -4.646930   0.000000   0.000000
                                    CHANNELS 3 Zrotation Xrotation Yrotation
                                    JOINT RightFinger12
                                    {
                                        OFFSET  -2.323470   0.000000   0.000000
                                        CHANNELS 3 Zrotation Xrotation Yrotation
                                        End Site
                                        {
                                            OFFSET  -2.273050   0.000000   0.000000
                                        }
                                    }
                                }
                            }
                            JOINT RightFinger2
                            {
                                OFFSET  -8.364480   0.000000   1.078090
                                CHANNELS 3 Zrotation Xrotation Yrotation
                                JOINT RightFinger21
                                {
                                    OFFSET  -5.111620   0.000000   0.000000
                                    CHANNELS 3 Zrotation Xrotation Yrotation
                                    JOINT RightFinger22
                                    {
                                        OFFSET  -2.788160   0.000000   0.000000
                                        CHANNELS 3 Zrotation Xrotation Yrotation
                                        End Site
                                        {
                                            OFFSET  -2.727660   0.000000   0.000000
                                        }
                                    }
                                }
                            }
                            JOINT RightFinger3
                            {
                                OFFSET  -7.899780   0.000000  -1.078090
                                CHANNELS 3 Zrotation Xrotation Yrotation
                                JOINT RightFinger31
                                {
                                    OFFSET  -4.646930   0.000000   0.000000
                                    CHANNELS 3 Zrotation Xrotation Yrotation
                                    JOINT RightFinger32
                                    {
                                        OFFSET  -2.323470   0.000000   0.000000
                                        CHANNELS 3 Zrotation Xrotation Yrotation
                                        End Site
                                        {
                                            OFFSET  -2.273050   0.000000   0.000000
                                        }
                                    }
                                }
                            }
                            JOINT RightFinger4
                            {
                                OFFSET  -7.435090   0.000000  -3.252850
                                CHANNELS 3 Zrotation Xrotation Yrotation
                                JOINT RightFinger41
                                {
                                    OFFSET  -3.717550   0.000000   0.000000
                                    CHANNELS 3 Zrotation Xrotation Yrotation
                                    JOINT RightFinger42
                                    {
                                        OFFSET  -1.858760   0.000000   0.000000
                                        CHANNELS 3 Zrotation Xrotation Yrotation
                                        End Site
                                        {
                                            OFFSET  -1.818440   0.000000   0.000000
                                        }
                                    }
                                }
                            }
                        }
                    }
                }
            }
        }
    }
    JOINT LeftHip
    {
        OFFSET   9.783030   0.000000   0.000000
        CHANNELS 3 Zrotation Xrotation Yrotation
        JOINT LeftKnee
        {
            OFFSET   0.000063 -41.789100   0.000608
            CHANNELS 3 Zrotation Xrotation Yrotation
            JOINT LeftAnkle
            {
                OFFSET   0.000048 -41.133200  -0.000184
                CHANNELS 3 Zrotation Xrotation Yrotation
                JOINT LeftToe
                {
                    OFFSET   0.000000  -6.358960  14.674500
                    CHANNELS 3 Zrotation Xrotation Yrotation
                    End Site
                    {
                        OFFSET   0.000000   0.000000   3.913200
                    }
                }
            }
        }
    }
    JOINT RightHip
    {
        OFFSET  -9.783030   0.000000   0.000000
        CHANNELS 3 Zrotation Xrotation Yrotation
        JOINT RightKnee
        {
            OFFSET   0.000071 -41.789100   0.001239
            CHANNELS 3 Zrotation Xrotation Yrotation
            JOINT RightAnkle
            {
                OFFSET   0.000037 -41.133200  -0.000166
                CHANNELS 3 Zrotation Xrotation Yrotation
                JOINT RightToe
                {
                    OFFSET   0.000000  -6.358960  14.674500
                    CHANNELS 3 Zrotation Xrotation Yrotation
                    End Site
                    {
                        OFFSET   0.000000   0.000000   3.913200
                    }
                }
            }
        }
    }
}
MOTION
Frames: 5
Frame Time:   0.016667
  1.190090  89.566500   1.543090  -3.681330  -7.784470  -6.638000   1.511410   4.205900   0.902795   2.968100   8.433780   1.700630   1.246360  -0.931354   0.015674   2.049070  -1.885850   1.385710  -6.906820  -1.598460   1.232670 -72.824300  21.623400  -2.184370  -2.032670  -5.684850 -14.054200  16.973000 -16.065200  10.282600  39.650700  34.177900 -61.871700 -32.675200  -0.009643  -0.005064 -11.337600  -0.000557  -0.009663 -35.573400   6.469770  -8.952980 -29.520400   0.006211   0.001147 -20.664200   0.007951  -0.001545 -29.850200  -0.840752   1.464700 -44.791400  -0.001811  -0.001744 -29.831100   0.003655  -0.006070 -28.905400  -0.816483   1.478360 -43.373900  -0.000153  -0.001001 -28.887000   0.002283  -0.005747 -34.787700  -0.963718   1.386900 -52.199000   0.012888  -0.007652 -34.764500   0.007812  -0.007114  10.454300   0.509945   7.662900  67.924900   9.791510  -6.696470  -1.996200  -4.152540  12.531600 -11.835000 -12.273100  -1.901800 -42.263300  40.532400  75.958800  32.099200   0.008735  -0.012335  11.054700   0.000771  -0.007412  33.916000   5.857480   8.630570  28.111300  -0.004619  -0.005850  19.677900  -0.003201   0.000074  28.678000  -0.638443  -1.161510  38.640600  -0.005627   0.001189  25.734700  -0.013142  -0.011144  26.433100  -4.120320  -8.224200  26.729500   0.003267   0.001422  17.801800   0.002692   0.001183  34.284000  -5.208450  -7.584760  51.944100   0.002015   0.002055  34.594800   0.000959  -0.012738   2.602010  11.224100   4.625490   1.188100   0.003438   6.887360  -1.652220  -3.848710   4.177740   0.000000   0.000000   0.000000   2.761290   8.582420  -2.460400  -0.996988   2.794610  -9.358170  -0.815808  -4.546460   2.553780  -0.000000   0.000000   0.000000
  1.190200  89.566400   1.522030  -3.680390  -7.801690  -6.617120   1.515070   4.209930   0.900752   2.975540   8.441800   1.696160   1.256370  -0.908832   0.015660   2.065450  -1.840240   1.391350  -6.906610  -1.598470   1.240490 -72.819000  21.642100  -2.197670  -2.037670  -5.688060 -14.052200  16.954700 -16.040100  10.288400  39.645300  34.188900 -61.858700 -32.691100  -0.009643  -0.005062 -11.345500  -0.000551  -0.009662 -35.566800   6.449380  -8.928090 -29.512600   0.006211   0.001150 -20.658700   0.007948  -0.001540 -29.837800  -0.849434   1.480550 -44.773100  -0.001811  -0.001745 -29.818900   0.003656  -0.006070 -28.894000  -0.824930   1.494330 -43.357100  -0.000152  -0.001000 -28.875900   0.002280  -0.005748 -34.773700  -0.973691   1.401970 -52.178400   0.012889  -0.007651 -34.750800   0.007810  -0.007113  10.454200   0.509942   7.660060  67.917400   9.799390  -6.709530  -1.990460  -4.155240  12.514800 -11.848200 -12.291300  -1.899500 -42.252700  40.522500  75.964300  32.099200   0.008740  -0.012330  11.054700   0.000762  -0.007398  33.937900   5.864920   8.634300  28.129800  -0.004622  -0.005851  19.690900  -0.003200   0.000075  28.678000  -0.635392  -1.158380  38.677700  -0.005626   0.001190  25.759400  -0.013144  -0.011144  26.449400  -4.128570  -8.233050  26.746700   0.003266   0.001423  17.813300   0.002692   0.001186  34.303600  -5.218330  -7.592050  51.975100   0.002015   0.002058  34.615400   0.000962  -0.012738   2.608160  11.201000   4.629320   1.187290   0.042387   6.874300  -1.655980  -3.848960   4.166050   0.000000   0.000000  -0.000000   2.775690   8.590810  -2.485640  -1.010670   2.785800  -9.357760  -0.816911  -4.524190   2.552030  -0.000000   0.000000   0.000000
  1.190310  89.566300   1.486780  -3.678280  -7.829120  -6.579820   1.521140   4.217090   0.895824   2.988020   8.456050   1.685640   1.271480  -0.870982   0.015647   2.090170  -1.763590   1.399000  -6.906280  -1.598500   1.252620 -72.810500  21.678700  -2.217710  -2.045280  -5.698340 -14.041100  16.935900 -16.004000  10.300100  39.650400  34.199200 -61.844700 -32.707000  -0.009643  -0.005059 -11.353500  -0.000546  -0.009657 -35.556300   6.428990  -8.903210 -29.501500   0.006213   0.001157 -20.651000   0.007942  -0.001528 -29.825300  -0.858115   1.496400 -44.754800  -0.001810  -0.001749 -29.806700   0.003660  -0.006071 -28.882600  -0.833376   1.510310 -43.340300  -0.000149  -0.000996 -28.864700   0.002271  -0.005748 -34.759700  -0.983664   1.417040 -52.157700   0.012893  -0.007646 -34.737000   0.007806  -0.007111  10.454000   0.509902   7.653300  67.906100   9.807080  -6.731950  -1.980400  -4.160360  12.498100 -11.860800 -12.316600  -1.893970 -42.237700  40.513400  75.972500  32.099200   0.008745  -0.012324  11.054700   0.000753  -0.007384  33.968900   5.878690   8.644240  28.156500  -0.004627  -0.005855  19.709600  -0.003200   0.000078  28.678100  -0.629109  -1.150020  38.730500  -0.005624   0.001191  25.794500  -0.013147  -0.011141  26.474600  -4.136820  -8.241900  26.772700   0.003264   0.001423  17.830700   0.002691   0.001193  34.332900  -5.228220  -7.599350  52.020600   0.002017   0.002065  34.645700   0.000969  -0.012738   2.617270  11.177800   4.637600   1.186520   0.081341   6.847860  -1.660260  -3.849260   4.146690   0.000000   0.000000   0.000000   2.797190   8.599120  -2.524290  -1.031520   2.776990  -9.355290  -0.819464  -4.486280   2.540160  -0.000000   0.000000  -0.000000
  1.188690  89.566200   1.458390  -3.675230  -7.846950  -6.544150   1.526210   4.222650   0.888701   2.998700   8.467080   1.670810   1.279130  -0.839226   0.015657   2.102630  -1.699320   1.401440  -6.902330  -1.599930   1.259510 -72.805000  21.723400  -2.228640  -2.049170  -5.718650 -14.011000  16.937300 -15.984800  10.317700  39.647800  34.171300 -61.809400 -32.697200  -0.009640  -0.005058 -11.348600  -0.000546  -0.009645 -35.548300   6.438750  -8.920000 -29.496100   0.006216   0.001170 -20.647200   0.007934  -0.001512 -29.826500  -0.845353   1.474010 -44.755700  -0.001809  -0.001758 -29.807300   0.003664  -0.006071 -28.883800  -0.820992   1.487710 -43.341300  -0.000145  -0.000990 -28.865400   0.002258  -0.005749 -34.760400  -0.968971   1.395870 -52.157900   0.012898  -0.007638 -34.737100   0.007800  -0.007107  10.454700   0.509080   7.642440  67.900300   9.797810  -6.751920  -1.971680  -4.166490  12.500000 -11.852300 -12.323600  -1.884670 -42.235400  40.515600  75.979800  32.095600   0.008741  -0.012329  11.054600   0.000754  -0.007385  33.981800   5.893970   8.662140  28.168800  -0.004630  -0.005861  19.718200  -0.003202   0.000081  28.678800  -0.619232  -1.132260  38.753300  -0.005623   0.001192  25.809700  -0.013152  -0.011137  26.491100  -4.133080  -8.230750  26.788500   0.003262   0.001424  17.841200   0.002691   0.001202  34.349800  -5.222950  -7.588710  52.044700   0.002020   0.002078  34.661700   0.000978  -0.012737   2.621770  11.187100   4.651290   1.185180   0.041873   6.813140  -1.659110  -3.813360   4.132110   0.000000   0.000000  -0.000000   2.807700   8.596580  -2.552690  -1.043400   2.778350  -9.331450  -0.824380  -4.449310   2.496510   0.000000   0.000000   0.000000
  1.185440  89.566200   1.429600  -3.672050  -7.866180  -6.506610   1.530730   4.230980   0.879710   3.008370   8.483580   1.652200   1.287200  -0.808737   0.015668   2.115850  -1.637570   1.401840  -6.895190  -1.602010   1.267130 -72.799900  21.766700  -2.238220  -2.053430  -5.741450 -13.980500  16.939200 -15.976700  10.329500  39.634700  34.144100 -61.775300 -32.686400  -0.009637  -0.005057 -11.343200  -0.000548  -0.009636 -35.543200   6.452730  -8.939610 -29.494000   0.006218   0.001188 -20.645800   0.007924  -0.001491 -29.830700  -0.832591   1.451630 -44.761900  -0.001806  -0.001769 -29.811400   0.003670  -0.006072 -28.888600  -0.808607   1.465120 -43.348400  -0.000138  -0.000982 -28.870000   0.002241  -0.005750 -34.761100  -0.954277   1.374700 -52.158900   0.012905  -0.007626 -34.737800   0.007794  -0.007102  10.456300   0.506113   7.631440  67.894900   9.788550  -6.771350  -1.963310  -4.172290  12.508700 -11.839800 -12.329400  -1.876040 -42.242900  40.520300  75.994800  32.092000   0.008737  -0.012334  11.054600   0.000756  -0.007389  33.989000   5.908150   8.680260  28.176400  -0.004634  -0.005868  19.723500  -0.003206   0.000086  28.679500  -0.612586  -1.119720  38.766100  -0.005621   0.001194  25.818200  -0.013157  -0.011132  26.503700  -4.129360  -8.216910  26.800500   0.003258   0.001424  17.849100   0.002690   0.001215  34.361500  -5.217300  -7.575660  52.060800   0.002023   0.002094  34.672500   0.000990  -0.012736   2.627930  11.196400   4.660540   1.183790   0.002400   6.780260  -1.659040  -3.763640   4.115980  -0.000000   0.000000   0.000000   2.818270   8.588540  -2.567660  -1.058050   2.786810  -9.294670  -0.830630  -4.421440   2.430260  -0.000000   0.000000   0.000000
